<?xml version="1.0" standalone="no"?>
<!DOCTYPE svg PUBLIC "-//W3C//DTD SVG 20010904//EN"
 "http://www.w3.org/TR/2001/REC-SVG-20010904/DTD/svg10.dtd">
<svg version="1.0" xmlns="http://www.w3.org/2000/svg"
 width="460.000000pt" height="460.000000pt" viewBox="0 0 460.000000 460.000000"
 preserveAspectRatio="xMidYMid meet">
<metadata>
Created by potrace 1.12, written by Peter Selinger 2001-2015
</metadata>
<g transform="translate(0.000000,460.000000) scale(0.100000,-0.100000)"
fill="#000000" stroke="none">
<path d="M760 4524 c-70 -23 -130 -66 -130 -93 0 -15 51 -51 71 -51 13 0 28
-22 53 -76 45 -96 41 -123 -21 -180 -50 -45 -53 -69 -14 -111 11 -12 25 -41
31 -65 11 -43 11 -44 -29 -86 -51 -53 -70 -89 -77 -146 -8 -54 21 -121 65
-155 l29 -22 -26 -47 c-25 -44 -27 -56 -26 -172 0 -89 5 -144 18 -189 20 -73
70 -181 97 -210 11 -11 19 -23 19 -26 0 -3 -24 -5 -52 -5 -29 0 -70 -4 -90 -9
-34 -8 -39 -6 -60 21 -22 30 -76 64 -85 55 -2 -3 4 -8 15 -12 27 -8 78 -90 90
-142 13 -58 8 -142 -11 -178 -23 -45 -66 -88 -82 -81 -9 3 -12 0 -9 -8 3 -7
-3 -16 -13 -19 -10 -3 -41 -14 -69 -25 -29 -11 -81 -23 -118 -27 -63 -6 -69
-5 -130 29 -89 50 -110 86 -110 191 -1 78 0 82 38 133 36 49 98 101 156 129
l25 13 -25 -6 c-79 -19 -191 -123 -210 -195 -13 -48 -7 -155 11 -208 7 -20 30
-46 57 -66 45 -32 46 -34 43 -82 -3 -56 30 -197 59 -252 24 -46 61 -85 111
-116 30 -19 39 -32 39 -53 0 -31 29 -99 61 -143 49 -69 178 -99 268 -63 38 15
42 15 88 -7 27 -12 57 -35 68 -53 44 -68 183 -103 337 -86 63 7 85 6 115 -7
45 -19 159 -21 191 -4 12 6 22 9 22 6 0 -3 -18 -36 -40 -72 -24 -39 -41 -84
-45 -112 -10 -75 -8 -74 -141 -110 -88 -24 -252 -159 -289 -238 -18 -38 -14
-78 17 -168 34 -96 85 -163 167 -219 l72 -49 69 17 c37 9 70 16 73 16 3 0 8
-15 11 -34 10 -53 34 -68 103 -64 35 2 57 -1 57 -7 -1 -5 -5 -23 -8 -40 -5
-27 -2 -33 31 -54 72 -47 186 -102 242 -117 31 -8 103 -21 160 -30 94 -14 114
-14 212 1 143 21 226 47 281 89 65 50 73 76 56 180 l-9 59 40 39 c23 21 41 45
41 52 0 7 17 17 37 22 32 8 38 14 45 44 9 40 2 155 -14 215 -7 29 -7 40 1 43
7 2 34 19 62 38 l50 33 9 -25 c6 -14 10 -28 10 -31 0 -2 9 -12 20 -21 19 -17
69 -147 94 -248 17 -68 22 -74 60 -74 67 0 199 58 313 139 132 93 211 188 294
354 l34 68 22 -28 c27 -33 86 -153 103 -206 9 -29 9 -42 1 -50 -6 -6 -11 -32
-11 -57 0 -36 6 -53 28 -77 37 -43 136 -83 207 -83 l55 0 0 -43 c0 -59 25
-136 54 -169 71 -80 193 -96 288 -38 29 18 63 44 76 58 30 34 33 26 10 -27
-13 -29 -23 -40 -28 -32 -5 9 -15 -3 -30 -34 -26 -54 -79 -108 -135 -139 -34
-18 -56 -21 -145 -21 -121 0 -184 18 -268 72 -63 42 -68 50 -42 58 39 12 49
92 19 144 -5 9 -13 28 -19 43 -5 15 -21 35 -36 44 -25 17 -28 17 -56 1 -16 -9
-38 -17 -48 -17 -10 0 -20 -6 -23 -12 -12 -34 -22 13 -22 100 0 110 17 155 84
226 21 22 28 34 16 28 -54 -28 -107 -114 -126 -204 -7 -29 -18 -62 -25 -74 -8
-11 -16 -47 -19 -80 -7 -67 9 -109 40 -109 13 0 21 -10 28 -35 11 -44 26 -60
68 -70 l34 -7 -32 -13 c-36 -13 -36 -13 -20 -55 32 -80 116 -177 234 -268 88
-68 213 -121 309 -133 50 -6 51 -6 82 33 41 53 93 208 99 298 3 39 11 79 17
90 19 32 74 204 86 269 20 118 10 219 -32 300 -24 48 -91 128 -114 136 -17 7
-24 17 -24 38 0 76 -138 391 -205 470 l-37 43 7 122 c6 107 10 127 32 161 25
38 25 39 5 58 -26 27 -98 39 -164 29 -61 -10 -68 -8 -68 23 0 13 -9 31 -19 40
-17 16 -23 16 -77 2 -32 -8 -60 -14 -62 -12 -2 2 14 37 35 77 l38 74 0 140 c0
120 -3 148 -22 195 -12 30 -24 89 -27 130 -7 86 -46 246 -77 315 -4 11 -18 45
-29 75 -25 64 -70 146 -117 213 -38 54 -40 61 -15 53 10 -3 62 -14 117 -25 55
-10 120 -26 144 -35 32 -13 71 -16 148 -14 l103 2 29 45 c29 46 37 69 66 192
34 146 5 299 -90 465 -116 205 -281 333 -516 400 -81 23 -114 27 -239 27 -191
1 -302 -26 -470 -114 l-75 -40 -20 28 c-46 63 -122 126 -201 167 -42 22 -65
27 -131 28 -54 0 -91 -5 -114 -15 -19 -9 -74 -30 -124 -48 -49 -17 -103 -37
-120 -44 -16 -8 -66 -28 -110 -45 -44 -17 -159 -73 -255 -124 -184 -98 -202
-109 -331 -193 -45 -29 -82 -53 -84 -53 -2 0 -8 23 -15 51 l-12 51 -32 -31
c-50 -48 -193 -91 -304 -91 -48 0 -94 5 -102 10 -10 7 10 10 65 10 71 0 124 9
259 42 53 13 100 60 92 93 -5 19 -3 23 9 19 8 -4 15 -15 15 -25 0 -10 5 -19
10 -19 17 0 11 29 -10 50 -11 11 -31 20 -43 20 -15 0 -42 18 -71 48 l-47 47 3
75 c2 60 8 81 26 104 12 16 22 36 22 46 0 18 -46 67 -55 58 -3 -3 6 -13 20
-22 32 -21 32 -38 -4 -73 -23 -23 -48 -33 -117 -48 -120 -25 -290 -26 -327 -2
-15 10 -27 24 -27 32 0 24 62 62 145 88 44 14 71 25 60 26 -11 0 -54 -11 -95
-25z m1729 -71 c51 -22 161 -95 193 -129 24 -26 78 -118 78 -133 0 -3 -46 -6
-103 -7 -73 -1 -118 -7 -159 -21 -33 -11 -63 -16 -70 -11 -7 4 -46 8 -86 8
-58 0 -85 -5 -126 -25 -53 -25 -131 -94 -141 -125 -3 -8 -39 -28 -80 -44 -41
-16 -75 -32 -75 -35 0 -4 -14 -15 -30 -25 -42 -24 -124 -110 -171 -179 -22
-31 -52 -65 -67 -74 -15 -9 -35 -25 -45 -36 -15 -14 -22 -16 -33 -6 -8 7 -29
9 -49 6 -19 -3 -37 -1 -40 4 -4 5 -9 9 -13 9 -12 0 -47 -64 -44 -79 3 -10 -3
-12 -22 -7 -15 4 -26 2 -26 -4 0 -5 8 -10 19 -10 20 0 45 -23 35 -33 -3 -3 3
-3 15 0 12 3 21 10 21 15 0 5 4 7 10 3 5 -3 7 -12 3 -21 -4 -12 0 -14 23 -8
16 4 38 14 48 23 15 12 14 8 -5 -19 -13 -19 -33 -59 -45 -89 l-20 -54 -28 47
c-29 51 -128 156 -145 156 -19 0 -12 18 9 25 47 15 65 62 35 95 -14 16 -36
115 -50 228 -8 60 -3 68 70 112 22 13 42 27 45 31 3 3 43 28 90 54 47 26 101
58 120 70 19 12 98 54 175 94 294 153 387 176 505 128 97 -40 178 -100 239
-177 10 -14 22 -22 25 -19 4 3 -9 26 -28 51 -67 87 -205 166 -307 175 -63 6
-76 17 -31 27 15 3 50 13 77 21 57 16 148 11 204 -12z m1001 -43 c25 -5 70
-15 100 -23 l55 -15 -85 -1 c-47 -1 -116 -8 -155 -16 -83 -18 -92 -18 -79 -6
5 6 45 17 89 25 l80 15 -77 -3 c-98 -4 -168 -37 -255 -122 -35 -34 -63 -57
-63 -52 0 5 -5 6 -11 2 -8 -5 -8 -9 1 -14 9 -6 9 -12 0 -30 -6 -12 -12 -43
-13 -70 l-2 -48 -40 24 c-22 14 -66 37 -97 52 -53 25 -58 30 -58 59 0 39 45
87 134 144 34 21 57 39 53 39 -13 0 -99 -51 -125 -74 -18 -16 -25 -18 -31 -8
-11 19 -94 -76 -88 -100 3 -10 1 -18 -4 -18 -5 0 -9 11 -9 24 0 14 -4 36 -9
50 -11 28 -8 31 54 64 104 55 208 90 300 102 84 10 281 11 335 0z m182 -71
c107 -23 225 -102 310 -209 76 -95 120 -174 153 -275 29 -91 46 -257 26 -269
-6 -4 -11 -3 -11 1 0 5 -5 46 -10 91 -11 83 -17 98 -113 272 -20 36 -50 81
-67 100 -25 28 -22 22 13 -35 50 -78 68 -122 46 -110 -26 15 -59 48 -59 60 0
6 -17 47 -39 91 -38 79 -111 164 -140 164 -8 0 -38 23 -67 50 -29 28 -58 50
-64 50 -6 0 13 -19 41 -42 61 -50 81 -86 23 -41 -22 17 -62 38 -90 46 -47 15
-55 15 -100 0 -27 -8 -60 -25 -72 -37 -21 -18 -23 -28 -19 -75 3 -43 9 -59 30
-77 30 -26 33 -34 13 -34 -31 0 -58 58 -58 122 0 48 -2 58 -10 44 -6 -11 -8
-44 -4 -79 7 -65 33 -107 68 -107 18 0 40 -37 31 -53 -2 -4 -19 -13 -36 -21
-29 -11 -35 -10 -62 8 -16 12 -31 21 -32 21 -1 0 -4 14 -7 30 -4 18 -3 23 1
13 14 -31 37 35 25 69 -10 27 -10 27 -12 -12 l-2 -40 -10 35 c-17 63 -42 102
-73 117 -27 13 -36 13 -75 -1 -24 -8 -46 -13 -48 -11 -9 9 76 77 128 102 91
46 263 65 372 42z m-19 -118 c93 -22 152 -96 166 -208 8 -66 0 -106 -13 -65
-4 11 -14 23 -23 27 -15 5 -15 4 -1 -12 35 -41 28 -57 -9 -19 -49 50 -110 76
-172 73 -27 -1 -47 -5 -44 -9 2 -5 -3 -8 -11 -8 -9 0 -16 7 -16 16 0 9 -8 48
-17 86 l-17 71 32 28 c34 31 60 35 125 20z m-2423 -104 c1 -54 -160 -106 -328
-107 -95 0 -145 13 -170 43 -12 14 -9 23 23 62 35 42 40 44 59 32 51 -32 101
-38 193 -22 74 12 92 19 113 43 l25 28 42 -30 c23 -17 42 -39 43 -49z m2045
13 c25 -47 19 -101 -15 -148 -34 -47 -45 -50 -77 -23 -22 18 -22 21 -8 60 8
23 26 58 41 79 26 35 26 35 3 12 -14 -14 -36 -44 -49 -67 -26 -47 -32 -50 -50
-28 -26 31 22 129 74 150 37 16 60 6 81 -35z m-504 14 c182 -33 387 -169 488
-323 52 -80 102 -204 87 -218 -11 -11 -55 39 -67 76 -35 108 -109 211 -191
266 -23 17 -45 33 -48 36 -19 24 -179 93 -255 110 -49 11 -104 24 -121 30 -17
5 -66 9 -109 9 -81 0 -92 8 -28 20 65 13 157 11 244 -6z m-296 -37 c28 -14 72
-45 100 -70 l49 -44 -39 -13 c-22 -7 -55 -24 -74 -38 l-33 -25 7 24 c4 17 3
20 -3 10 -8 -11 -17 -6 -44 24 -39 45 -120 99 -163 109 -22 5 -15 -2 27 -26
71 -41 143 -105 153 -136 8 -27 -19 -64 -41 -55 -8 3 -14 0 -14 -7 0 -6 5 -8
10 -5 21 13 9 -17 -26 -65 -35 -49 -51 -63 -41 -36 3 8 -2 16 -14 19 -23 6
-49 -26 -49 -61 0 -13 -7 -30 -15 -38 -22 -22 -18 -51 7 -57 12 -4 20 -9 16
-12 -3 -3 -25 1 -49 9 -60 21 -118 20 -156 -3 l-31 -20 -11 31 c-6 17 -11 73
-11 125 0 157 50 269 151 342 67 48 77 51 169 47 56 -3 88 -10 125 -29z m1390
-27 c-3 -4 3 -14 11 -21 47 -39 113 -207 114 -288 0 -35 -19 -101 -30 -101 -3
0 -16 16 -30 35 -14 19 -29 35 -34 35 -4 0 8 -20 28 -44 20 -24 36 -48 36 -52
0 -13 -98 87 -127 129 l-27 39 23 17 c28 22 45 91 32 135 -5 17 -17 56 -26 86
-9 30 -19 61 -22 69 -4 9 6 6 26 -8 17 -12 29 -26 26 -31z m-1237 17 c8 -6 12
-6 12 1 0 15 144 -15 225 -48 130 -51 303 -182 345 -259 l13 -24 -28 21 c-36
28 -50 28 -77 -3 l-22 -25 -25 24 c-50 47 -221 154 -268 169 -26 8 -68 21 -93
28 -25 7 -61 29 -82 49 -20 20 -52 45 -72 55 -20 11 -36 22 -36 26 0 10 93 -2
108 -14z m1070 -126 c64 -33 107 -101 80 -127 -22 -22 -108 -63 -145 -70 -33
-6 -34 -6 -31 22 2 23 -3 33 -28 49 -17 11 -46 33 -65 48 l-33 29 25 19 c68
52 134 62 197 30z m-1674 -68 c-15 -37 -19 -74 -19 -163 0 -109 2 -118 33
-182 17 -37 32 -71 32 -77 0 -17 91 -101 109 -101 35 0 97 82 129 171 18 47
32 89 32 94 0 22 64 136 104 188 43 52 50 57 89 58 l42 2 -35 6 -35 6 36 28
c110 84 406 -42 569 -243 83 -102 105 -165 105 -300 0 -96 -3 -110 -29 -165
-35 -70 -107 -151 -140 -157 -22 -4 -24 -1 -24 39 -2 65 -18 113 -61 180 -40
62 -65 84 -141 124 -38 20 -60 23 -145 24 -90 0 -105 -3 -155 -28 -30 -16 -68
-40 -83 -55 -41 -39 -84 -124 -91 -179 l-6 -48 18 55 c46 139 114 204 237 230
186 39 361 -84 389 -273 9 -59 -12 -65 -44 -13 -11 19 -45 57 -75 85 -71 65
-162 95 -268 89 -57 -3 -81 -9 -115 -31 -91 -58 -138 -167 -129 -295 7 -88 4
-90 -95 -72 -52 9 -68 16 -64 26 3 8 2 14 -3 14 -4 0 -17 21 -29 48 -31 67
-112 163 -169 200 -101 65 -224 89 -297 58 -50 -21 -86 -79 -86 -138 0 -27 -4
-48 -9 -48 -31 0 -25 266 9 370 36 112 63 173 103 235 60 90 146 193 178 212
16 10 29 20 29 23 0 11 111 61 119 54 2 -2 -5 -25 -15 -51z m1401 12 c22 -14
48 -28 58 -31 27 -10 21 -17 -33 -43 -61 -29 -72 -41 -77 -88 -5 -44 -12 -54
-24 -33 -61 101 -79 137 -77 154 4 24 62 66 92 66 12 0 39 -11 61 -25z m-2363
-52 c20 -23 30 -77 33 -180 2 -64 0 -80 -10 -76 -8 2 -16 11 -19 19 -3 9 -10
13 -14 10 -5 -3 -7 6 -4 19 3 17 -1 27 -12 31 -9 3 -16 14 -16 24 0 25 -20 61
-53 93 -15 16 -27 36 -27 46 0 16 5 17 41 11 30 -6 42 -4 46 6 7 19 17 18 35
-3z m2967 -28 c44 -76 66 -232 39 -290 -13 -28 -19 -30 -36 -13 -9 9 -12 9
-12 1 0 -7 5 -15 10 -18 6 -3 10 -11 10 -18 0 -15 -68 62 -76 86 -3 10 1 26 9
35 43 49 52 114 31 220 -8 41 -1 41 25 -3z m-475 -42 c-15 -30 -18 -73 -7
-112 6 -23 7 -23 14 -5 7 18 8 18 8 -2 1 -12 9 -45 18 -73 15 -49 15 -53 0
-69 -23 -22 -86 -21 -120 1 -75 49 -104 134 -73 209 17 39 42 55 106 67 71 14
70 14 54 -16z m259 -38 c11 -25 23 -45 28 -45 5 0 9 -6 9 -13 0 -8 9 -22 20
-32 11 -10 20 -21 20 -25 0 -12 -88 -50 -148 -66 -91 -24 -97 -22 -120 44 -11
31 -23 74 -27 95 -6 36 -5 37 27 38 18 0 60 11 93 23 33 13 65 24 70 25 6 0
18 -19 28 -44z m-625 -62 c107 -62 203 -152 309 -288 198 -256 324 -694 284
-990 -24 -177 -68 -274 -123 -275 -9 0 -18 -7 -20 -15 -2 -10 -18 0 -53 31
-27 25 -40 42 -30 39 39 -13 -39 45 -103 76 -70 33 -111 35 -47 1 49 -26 44
-27 -25 -6 -65 19 -165 23 -181 7 -9 -9 -5 -18 16 -40 29 -30 105 -138 105
-148 0 -4 7 -21 15 -38 17 -38 64 -249 72 -327 3 -30 7 -57 9 -59 1 -2 17 7
34 19 17 12 34 19 37 16 16 -16 -136 -100 -207 -115 -68 -15 -179 -14 -270 3
-90 16 -135 34 -174 70 -28 27 -30 27 -97 17 -123 -20 -160 -14 -171 27 -2 10
20 14 87 17 83 3 155 19 143 31 -3 2 -36 0 -74 -6 -38 -6 -92 -9 -121 -7 -49
4 -56 8 -105 63 -29 32 -101 106 -159 165 -85 87 -114 109 -150 120 -24 7 -52
19 -61 28 -16 15 -16 20 3 91 31 115 13 257 -46 346 -24 36 -18 38 28 6 91
-64 275 -167 283 -159 6 6 -14 21 -71 51 -57 31 -61 33 -164 99 -82 52 -78 55
48 31 113 -22 358 -14 481 14 98 23 207 62 267 97 48 28 63 31 63 11 0 -8 4
-16 10 -18 14 -4 42 -173 39 -238 -2 -30 -9 -78 -17 -106 l-15 -52 -49 -4
c-64 -4 -272 17 -320 33 -36 12 -48 34 -18 34 7 0 19 9 26 20 12 18 11 26 -5
55 -25 47 -60 71 -113 77 -42 5 -47 3 -86 -38 -46 -47 -72 -113 -72 -185 0
-29 -8 -55 -25 -80 -33 -49 -33 -97 2 -143 39 -51 62 -68 116 -87 67 -22 167
-5 181 32 4 12 0 11 -24 -1 -42 -22 -132 -19 -180 5 -73 37 -117 124 -90 176
17 30 30 15 30 -34 0 -44 14 -68 50 -87 40 -21 83 -19 130 5 38 20 40 22 40
69 0 31 -5 53 -15 61 -10 8 -15 30 -15 61 0 27 1 49 3 49 1 0 38 -7 82 -15 44
-9 154 -20 245 -25 161 -9 165 -9 180 11 8 12 49 58 90 103 41 45 82 95 90
111 8 17 19 37 25 45 54 71 85 306 65 495 -6 60 -12 155 -14 210 -3 117 -27
183 -93 250 -22 22 -51 67 -66 99 -15 32 -41 75 -58 97 -36 46 -25 49 39 12z
m-2139 -95 c13 -4 22 -11 19 -14 -3 -2 -17 0 -32 6 -15 5 -46 10 -69 9 -36 -1
-32 -3 33 -16 41 -8 80 -19 86 -24 7 -5 46 -11 87 -13 63 -3 81 -7 113 -31 40
-29 94 -91 123 -141 9 -15 22 -34 29 -42 18 -20 15 -37 -17 -94 l-29 -51 -21
39 c-11 22 -30 51 -43 65 -13 15 -41 48 -63 75 -52 61 -86 93 -107 100 -10 3
-18 9 -18 14 0 4 -19 16 -42 25 -75 30 -75 28 -1 -14 56 -32 88 -60 140 -124
127 -152 153 -194 141 -226 -8 -23 -12 -20 -58 51 -85 129 -216 248 -273 248
-7 0 -36 12 -63 27 -41 23 -62 27 -126 27 -74 1 -79 0 -110 -31 -17 -18 -29
-35 -26 -39 4 -3 18 6 31 22 21 23 33 28 88 32 35 2 62 2 58 -1 -3 -4 -22 -8
-44 -9 -21 -2 -40 -9 -42 -15 -3 -8 6 -10 28 -8 23 3 53 -6 102 -30 79 -40 81
-40 73 -20 -3 9 0 15 10 15 9 0 12 -5 8 -12 -5 -8 -2 -9 10 -5 14 6 16 3 10
-15 -5 -16 -3 -20 9 -15 14 5 67 -40 67 -57 0 -5 -16 -6 -35 -3 -19 3 -37 2
-40 -2 -10 -17 -44 -19 -71 -5 -22 12 -29 12 -36 2 -12 -20 -10 -28 7 -22 11
5 13 2 9 -10 -3 -9 -15 -16 -25 -16 -13 0 -17 -5 -12 -17 4 -11 3 -14 -5 -9
-8 5 -12 -1 -12 -16 -1 -22 -1 -22 -15 -5 -13 18 -14 17 -30 -13 -15 -30 -15
-33 1 -44 16 -12 16 -13 -1 -20 -17 -6 -92 45 -122 84 -6 8 -15 12 -19 7 -4
-4 4 -20 18 -35 27 -29 36 -71 11 -50 -23 18 -45 68 -39 85 4 9 1 22 -5 29 -7
8 -9 38 -5 81 3 37 6 85 6 106 -1 34 7 46 66 104 37 35 77 69 88 74 24 10 148
1 185 -13z m1145 5 c37 -6 38 -7 33 -38 -3 -18 -1 -37 5 -43 8 -8 6 -18 -6
-36 -9 -14 -16 -31 -16 -38 0 -7 9 1 20 17 11 17 20 25 20 19 0 -20 -54 -83
-72 -84 -15 0 -71 66 -95 113 l-25 51 26 23 c28 24 46 27 110 16z m1760 -68
c10 -25 22 -45 27 -45 25 0 3 -18 -43 -35 -38 -14 -80 -20 -143 -20 -81 0 -95
3 -143 29 l-52 29 20 22 c18 19 36 23 116 29 52 4 111 13 132 21 60 22 68 19
86 -30z m-646 -145 c25 -50 27 -65 27 -170 0 -101 -4 -122 -26 -172 -39 -90
-109 -180 -173 -222 -32 -21 -56 -44 -56 -54 0 -18 20 -80 32 -97 4 -6 9 -40
13 -75 3 -36 8 -80 11 -99 7 -57 -17 -199 -37 -217 -27 -24 -39 -10 -27 34 14
51 5 318 -12 357 -29 65 -35 67 -100 34 -153 -76 -288 -109 -478 -116 -142 -6
-361 10 -412 29 -26 10 -70 46 -70 58 0 4 26 1 58 -7 77 -20 352 -28 485 -14
277 28 497 131 639 298 98 116 135 320 79 435 -11 24 -21 58 -21 74 l0 29 21
-25 c11 -14 32 -50 47 -80z m-1743 14 c-77 -169 -69 -320 23 -426 l32 -35 -88
-5 c-49 -3 -98 -11 -111 -17 -12 -7 -25 -10 -28 -7 -13 13 -15 110 -3 168 10
54 62 188 72 188 2 0 4 -39 5 -87 1 -93 18 -163 42 -171 10 -3 12 0 7 14 -4
11 -12 48 -17 84 -17 116 14 268 70 347 26 35 24 8 -4 -53z m982 -179 c0 -8
-4 -12 -9 -9 -5 4 -12 -3 -15 -15 -3 -12 -9 -21 -13 -21 -15 0 -32 -91 -28
-151 4 -56 8 -65 42 -95 40 -35 73 -45 63 -19 -4 8 -2 17 3 20 14 9 0 35 -19
36 -9 0 -2 5 14 10 38 11 65 55 65 106 0 21 6 45 13 52 10 11 8 12 -10 6 -27
-7 -31 9 -8 31 8 9 15 21 15 27 0 8 -3 7 -9 -2 -5 -7 -14 -10 -20 -7 -20 13
-1 26 38 26 24 0 54 -10 85 -30 27 -17 53 -29 59 -27 12 4 -47 67 -64 67 -7 0
-10 3 -7 6 12 11 87 -36 122 -77 67 -79 60 -182 -19 -265 -23 -24 -112 -61
-122 -50 -4 4 3 9 15 13 12 3 22 10 22 15 0 10 -109 5 -161 -8 -30 -7 -75 26
-120 90 -51 70 -36 188 34 264 24 26 34 28 34 7z m-670 -51 c65 -41 16 -159
-58 -141 -71 18 -90 87 -39 138 32 32 50 33 97 3z m717 -7 c53 -49 58 -130 10
-162 -22 -14 -31 -15 -55 -4 -59 24 -71 88 -29 157 23 38 40 40 74 9z m-878
-19 c-9 -12 -16 -42 -16 -65 0 -38 4 -45 38 -67 34 -22 37 -22 40 -5 3 14 9
17 33 12 43 -8 89 15 105 54 16 38 21 39 52 17 19 -13 25 -14 39 -2 15 11 16
11 10 -4 -4 -10 -2 -18 4 -18 6 0 8 -7 5 -16 -4 -11 -1 -14 12 -12 21 4 66
-83 57 -112 -4 -12 0 -19 11 -22 15 -3 14 -7 -8 -32 -19 -23 -35 -30 -67 -32
-22 -1 -41 2 -41 8 0 5 -4 6 -10 3 -5 -3 -37 -8 -70 -10 -46 -3 -63 0 -67 11
-3 7 -8 12 -12 10 -14 -9 -99 39 -124 69 -53 64 -57 160 -10 216 29 34 43 32
19 -3z m-852 -180 c38 -36 60 -64 58 -75 -2 -13 0 -14 6 -5 6 9 29 -2 90 -42
68 -45 77 -53 54 -52 -16 1 -44 13 -63 27 -45 33 -101 59 -131 59 -27 1 -72
62 -112 154 -35 80 -33 101 5 40 17 -27 59 -75 93 -106z m2495 -166 c-14 -144
-60 -264 -141 -369 -64 -84 -63 -85 -64 50 -2 106 -5 131 -28 192 -15 39 -28
75 -29 82 -1 7 23 29 54 50 71 48 142 128 177 200 l27 55 7 -83 c3 -46 2 -126
-3 -177z m-1623 68 c129 -65 215 -147 296 -284 62 -105 79 -159 85 -266 7
-136 -26 -224 -57 -151 -7 17 -19 36 -26 42 -13 10 -13 8 -4 -17 6 -15 16 -34
22 -41 6 -8 7 -13 1 -13 -13 0 -36 28 -50 60 -13 29 -88 125 -178 225 -146
165 -429 296 -526 245 -26 -14 -49 -62 -49 -101 0 -18 -3 -30 -6 -26 -11 10
-6 95 7 118 8 15 8 19 0 15 -41 -26 39 118 96 172 59 55 84 63 209 60 103 -3
114 -5 180 -38z m-871 -21 c71 -13 142 -57 208 -128 75 -80 91 -125 91 -256 0
-101 -2 -116 -31 -182 -38 -88 -82 -146 -125 -164 -18 -7 -35 -16 -38 -19 -3
-4 -26 -19 -52 -34 -34 -20 -47 -23 -51 -14 -4 9 -6 8 -6 -3 -1 -9 -9 -19 -18
-23 -10 -3 -45 -15 -78 -26 -67 -22 -175 -27 -175 -8 0 9 -3 9 -11 1 -7 -7
-19 -8 -33 -3 -11 5 -34 11 -49 15 -24 5 -27 9 -21 28 10 32 10 32 65 13 40
-15 68 -17 126 -13 41 3 80 10 86 15 15 12 98 36 115 33 18 -3 27 29 11 40
-10 7 -6 8 11 4 28 -6 49 11 104 85 68 93 87 143 96 262 7 101 6 114 -16 174
-29 79 -52 113 -96 138 l-33 19 38 -39 c26 -26 37 -45 33 -58 -3 -12 3 -26 17
-37 22 -18 22 -18 -23 -13 -26 2 -62 -2 -85 -10 -44 -16 -61 -13 -68 14 -6 24
-50 52 -87 55 -38 3 -77 38 -101 90 -17 37 -17 40 -1 47 27 10 133 9 197 -3z
m-141 -151 c19 -29 37 -72 41 -96 4 -23 11 -40 16 -37 4 3 6 19 2 35 -3 19 -1
30 6 30 11 0 12 -8 13 -67 1 -46 -14 -123 -23 -123 -10 0 -13 27 -10 75 2 30
2 30 -14 8 -13 -19 -19 -21 -41 -11 -13 6 -23 17 -20 24 3 7 -2 10 -12 8 -37
-9 -44 10 -21 62 12 29 21 68 20 97 0 26 1 47 4 47 3 0 20 -24 39 -52z m209
-168 c4 0 7 7 7 15 0 21 21 19 27 -4 2 -10 23 -28 45 -40 47 -25 49 -25 42 -7
-3 8 -1 17 5 21 13 7 14 -88 2 -118 -6 -17 -8 -17 -33 3 -15 11 -52 32 -82 45
l-56 25 0 46 c0 45 1 46 18 31 10 -10 22 -17 25 -17z m1635 -82 c12 -6 22 -15
22 -20 0 -5 -4 -7 -9 -4 -5 4 -15 -7 -23 -24 -7 -16 -16 -30 -20 -30 -5 0 -8
-11 -8 -24 0 -13 -8 -27 -17 -30 -12 -5 -13 -10 -5 -18 18 -18 -5 -50 -31 -43
-17 5 -15 2 8 -14 l30 -21 -30 -1 c-29 0 -29 -1 -7 -11 30 -15 28 -32 -3 -24
-35 9 -31 -6 7 -29 18 -10 27 -20 20 -23 -22 -7 -64 28 -59 49 3 10 1 22 -4
25 -14 8 -11 54 4 55 10 0 10 2 0 6 -13 5 -18 60 -7 87 3 9 17 16 31 16 13 0
22 4 18 10 -3 5 -12 7 -20 3 -8 -3 -15 -1 -15 4 0 16 22 32 39 26 14 -4 14 -3
1 6 -13 10 -13 13 2 25 22 16 47 17 76 4z m-1610 -23 c59 -31 95 -62 88 -74
-11 -18 -77 -33 -113 -26 -23 4 -37 13 -40 26 -3 10 -10 19 -15 19 -6 0 -8 -9
-5 -20 4 -16 -1 -21 -21 -26 -15 -4 -38 -13 -50 -21 -32 -20 -36 -12 -8 18 12
13 30 36 40 51 9 14 25 25 34 23 9 -1 11 0 5 2 -16 6 -16 8 -1 33 16 26 29 25
86 -5z m-601 -31 c35 -20 68 -46 75 -57 23 -45 24 -45 127 -53 66 -6 137 12
174 44 9 8 17 11 17 6 -1 -15 -42 -40 -95 -58 -70 -23 -162 -24 -203 -2 -38
20 -51 17 -25 -6 24 -20 79 -38 118 -38 33 0 73 -29 44 -31 -8 -1 -18 -1 -23
0 -5 1 -3 -5 4 -14 7 -9 19 -14 27 -11 7 3 13 -1 13 -8 0 -8 -5 -16 -12 -18
-17 -6 0 -28 23 -28 11 0 19 -7 19 -16 0 -10 -6 -14 -15 -10 -9 3 -15 0 -15
-8 0 -8 6 -17 13 -19 6 -3 -2 -6 -20 -6 -48 -1 -64 7 -51 28 6 11 8 33 4 55
-6 29 -14 40 -41 53 -31 15 -36 15 -58 0 -14 -9 -31 -29 -38 -45 -8 -19 -18
-28 -27 -25 -11 5 -11 7 0 15 9 7 7 8 -8 4 -12 -4 -28 1 -40 12 -10 10 -35 30
-56 45 -44 34 -67 87 -75 175 l-6 65 43 -7 c24 -4 72 -23 107 -42z m1157 -71
c74 -122 79 -136 84 -215 5 -83 -9 -160 -41 -223 -34 -67 -57 -95 -72 -88 -10
3 -13 1 -10 -9 6 -14 -36 -58 -55 -58 -6 0 -10 -4 -10 -8 0 -11 -92 -48 -150
-61 -107 -24 -287 -5 -331 35 -30 27 -17 26 46 -2 52 -24 65 -26 149 -22 85 5
219 43 236 67 3 4 27 22 54 41 60 41 75 55 113 111 48 71 56 101 51 188 -4 64
-11 93 -42 157 -20 43 -40 81 -44 84 -4 3 -16 15 -26 28 -19 22 -19 22 0 22
12 0 30 -17 48 -47z m-228 -110 c39 -27 75 -57 80 -68 5 -11 16 -20 24 -20 8
0 26 -10 40 -22 14 -13 31 -23 37 -23 7 0 27 -13 43 -28 l30 -29 -35 1 c-19 1
-40 7 -47 14 -7 7 -16 12 -21 12 -28 0 -237 175 -237 198 0 19 10 15 86 -35z
m2214 -20 c81 -46 100 -70 100 -126 0 -42 -2 -48 -14 -37 -12 9 -17 4 -26 -32
-23 -90 -43 -130 -88 -174 -52 -49 -53 -48 -66 34 -5 37 -4 42 13 42 10 0 25
7 32 16 12 15 11 16 -11 9 -22 -7 -21 -4 13 31 20 20 43 55 49 77 7 22 14 35
16 28 7 -20 22 -1 22 29 0 38 -9 60 -26 60 -10 0 -14 -14 -14 -53 0 -43 -6
-62 -29 -93 -25 -35 -70 -74 -86 -74 -3 0 -5 9 -5 20 0 30 -41 148 -68 194 -3
5 0 6 6 2 24 -15 59 45 53 91 -2 16 65 -7 129 -44z m-1416 -91 c3 -5 -5 -15
-19 -22 -28 -15 -76 -80 -98 -132 -43 -103 -47 -314 -7 -391 28 -53 34 -57 91
-57 87 0 148 27 216 97 53 55 63 71 73 120 20 94 -5 198 -58 246 -16 15 -15
10 7 -35 22 -45 26 -66 26 -143 0 -88 -1 -91 -37 -138 -44 -58 -70 -78 -126
-100 -53 -21 -94 -22 -136 -2 -29 14 -34 23 -45 81 -24 119 -8 255 41 344 46
83 65 100 112 100 103 0 205 -107 233 -245 14 -72 14 -77 -8 -142 -27 -82 -77
-136 -164 -178 -80 -39 -171 -40 -265 -2 -36 14 -57 26 -48 26 23 1 26 19 12
60 -20 56 -17 233 6 323 35 140 79 198 151 198 21 0 40 -4 43 -8z m-162 -39
c-11 -16 -34 -71 -52 -123 -36 -109 -48 -230 -30 -300 24 -94 24 -90 0 -85
-34 7 -64 30 -102 77 -102 130 -98 236 13 348 54 54 144 110 177 110 10 0 8
-7 -6 -27z m-243 -393 c47 -90 119 -155 226 -203 33 -15 35 -17 10 -11 -107
22 -240 9 -370 -36 -32 -11 -60 -20 -62 -20 -23 0 35 153 75 196 9 10 35 40
56 67 21 26 40 47 41 47 2 0 12 -18 24 -40z m823 -103 c5 -11 7 -21 4 -24 -3
-3 -11 6 -17 21 -12 26 -36 38 -26 13 9 -25 26 -123 32 -193 6 -68 5 -71 -28
-115 -19 -24 -37 -51 -40 -59 -4 -8 -5 -2 -3 14 3 26 2 28 -25 22 -21 -4 -29
-2 -29 9 0 8 -11 17 -25 21 -14 3 -25 12 -25 19 0 7 -22 18 -50 25 -49 12 -70
31 -70 64 0 16 64 41 80 31 6 -3 7 0 4 9 -4 10 -1 17 7 17 8 1 21 3 29 4 8 1
21 3 28 4 9 0 11 8 7 21 -4 14 1 27 19 44 14 13 26 30 26 39 0 9 7 23 16 32 9
8 13 22 10 30 -3 9 0 12 9 8 9 -3 18 3 22 13 5 14 9 11 21 -17 8 -19 19 -42
24 -52z m326 -7 c16 -16 34 -30 39 -30 14 0 130 -85 161 -119 13 -14 36 -42
50 -61 31 -41 91 -100 103 -100 31 0 119 61 119 83 0 5 -12 1 -27 -8 l-28 -18
28 31 c21 22 25 31 15 36 -7 3 -4 5 7 3 28 -3 31 -41 5 -78 -16 -22 -21 -39
-17 -63 4 -27 1 -34 -23 -48 -15 -8 -33 -30 -41 -47 -15 -32 -29 -41 -29 -17
0 8 6 16 13 19 6 2 8 8 4 13 -4 5 -12 2 -17 -6 -7 -11 -11 -11 -23 -1 -10 8
-17 9 -22 1 -17 -27 -75 6 -75 43 0 36 -116 197 -142 197 -12 0 -38 29 -73 79
-16 23 -49 60 -75 82 l-45 39 32 0 c23 0 41 -9 61 -30z m602 13 c0 -1 -7 -8
-15 -17 -22 -21 -55 -98 -48 -110 4 -5 10 0 14 10 6 18 49 54 64 54 3 0 1 -8
-4 -17 -17 -32 -41 -116 -42 -147 0 -32 -17 -83 -18 -56 -1 10 -4 11 -13 2 -7
-7 -17 -8 -30 -1 -19 10 -25 0 -8 -17 7 -7 5 -17 -4 -30 -12 -15 -17 -16 -27
-7 -10 10 -5 25 20 73 30 55 42 112 28 126 -10 11 -44 -6 -80 -41 -19 -18 -52
-41 -72 -49 -45 -19 -45 -19 -45 -3 0 23 -26 51 -39 42 -9 -5 -10 -10 -2 -18
6 -6 11 -15 11 -20 0 -5 -9 2 -20 16 -21 26 -27 53 -10 42 6 -3 7 1 3 10 -4
13 -8 14 -14 4 -6 -10 -14 -8 -36 11 -15 14 -32 27 -36 31 -4 3 14 2 40 -2 26
-4 61 -8 76 -8 24 -1 27 2 22 20 -6 18 -5 19 14 8 16 -11 25 -10 45 1 14 7 29
10 33 6 9 -9 -45 -56 -63 -56 -7 0 -14 -9 -17 -20 -4 -17 0 -20 24 -20 64 0
142 70 155 137 6 31 8 34 14 18 7 -19 9 -18 18 6 8 20 17 27 36 25 14 0 26 -2
26 -3z m-1482 -152 c105 -30 235 -92 301 -143 75 -59 124 -123 115 -152 -4
-15 -3 -17 4 -8 8 12 13 12 31 1 16 -11 21 -24 21 -57 l0 -44 -41 54 c-23 29
-55 66 -71 81 -17 15 -28 34 -25 42 4 9 -2 15 -16 17 -12 2 -22 10 -22 18 -1
21 -14 40 -28 39 -9 0 -9 -2 1 -6 6 -2 12 -9 12 -14 0 -10 -97 57 -108 75 -11
19 -93 64 -127 69 -16 3 -43 10 -60 17 -16 6 -75 15 -130 19 l-100 8 88 2 c60
1 109 -5 155 -18z m-100 -105 c196 -44 356 -174 447 -361 67 -139 67 -150 4
-88 -49 46 -158 123 -175 123 -4 0 -28 13 -53 28 -39 24 -148 70 -241 102
-129 45 -344 75 -474 67 -87 -5 -231 -44 -264 -70 -7 -5 -15 -8 -17 -5 -9 9
102 116 156 151 100 64 167 77 369 73 111 -3 202 -10 248 -20z m793 -116 c7
-24 7 -24 8 -2 2 47 17 19 35 -65 21 -102 33 -334 15 -293 -16 37 -41 164 -49
255 l-8 80 1 -100 c0 -99 0 -100 -26 -109 -17 -6 -28 -20 -33 -38 -6 -30 -31
-34 -26 -4 2 9 -1 16 -6 16 -5 0 -10 26 -11 57 -1 31 -7 63 -13 70 -14 18 -4
127 13 147 9 10 28 15 54 13 32 -2 40 -6 46 -27z m1758 -85 c13 -12 9 -14 -25
-8 l-39 6 36 -39 c19 -22 51 -63 69 -93 19 -30 36 -49 38 -43 4 12 -45 89 -81
130 -28 30 -6 28 31 -3 70 -59 107 -169 93 -280 -7 -59 -27 -112 -38 -101 -3
3 0 12 7 20 15 19 18 174 4 200 -9 14 -12 -8 -16 -98 -4 -74 -10 -121 -19
-132 -10 -12 -10 -17 0 -23 9 -6 1 -17 -27 -39 -52 -41 -82 -52 -148 -52 -148
0 -214 103 -186 290 17 117 93 253 157 281 28 12 127 1 144 -16z m-673 -423
c22 -14 44 -72 44 -115 0 -86 -64 -98 -89 -17 -27 91 -2 164 45 132z m121
-232 c70 -61 128 -89 220 -105 154 -27 252 -3 337 83 28 27 44 39 40 27 -13
-36 -64 -104 -97 -131 -41 -32 -129 -63 -182 -64 -95 0 -263 79 -343 162 -71
72 -50 95 25 28z m72 -132 c123 -80 207 -98 348 -72 l31 6 4 -73 c2 -41 2 -93
0 -116 -3 -42 -4 -42 -35 -37 -108 19 -274 89 -317 134 -3 3 -25 21 -50 40
-57 43 -102 91 -145 157 -41 60 -43 76 -12 90 19 9 27 4 62 -35 22 -25 73 -67
114 -94z"/>
<path d="M1741 3413 c-24 -9 -52 -23 -63 -32 -26 -21 -91 -138 -86 -153 2 -6
20 17 40 53 53 94 89 121 164 121 175 0 377 -207 410 -419 l7 -43 62 0 62 0 0
60 c1 33 -3 63 -8 66 -5 3 -9 -22 -9 -56 l0 -61 -47 3 -46 3 -17 70 c-23 98
-69 181 -138 252 -69 71 -128 108 -214 134 -73 22 -61 22 -117 2z"/>
<path d="M3450 3229 c-12 -9 -10 -10 9 -6 39 9 69 -10 106 -67 42 -67 45 -81
7 -38 -47 52 -72 39 -72 -36 1 -85 102 -453 148 -541 56 -108 101 -101 103 17
1 52 3 59 8 32 6 -30 7 -32 13 -13 3 13 2 40 -3 60 -5 21 -15 65 -23 98 -35
151 -65 232 -138 383 -48 97 -113 143 -158 111z"/>
<path d="M3412 3190 c-18 -29 -15 -119 7 -191 11 -35 27 -98 36 -139 25 -110
86 -314 104 -347 6 -10 20 -40 32 -67 50 -117 94 -136 149 -66 18 23 32 52 32
70 2 48 -9 45 -16 -4 -5 -34 -14 -51 -36 -66 -40 -29 -57 -25 -83 18 -38 61
-105 256 -138 402 -6 25 -14 54 -18 65 -30 72 -56 198 -56 268 0 42 0 77 0 77
0 0 -6 -9 -13 -20z"/>
<path d="M3311 2474 c-12 -15 -21 -40 -21 -57 0 -34 35 -97 55 -97 7 0 20 -2
27 -5 19 -7 64 33 77 68 14 36 -7 80 -49 102 -42 22 -66 19 -89 -11z"/>
<path d="M3077 2218 c-65 -33 -125 -105 -178 -214 -76 -155 -85 -279 -24 -331
40 -35 47 -27 9 11 -30 30 -34 40 -34 86 0 180 201 488 288 441 26 -14 81 -81
109 -133 12 -22 29 -75 39 -117 9 -42 20 -85 25 -96 5 -11 10 -65 12 -120 l2
-99 -65 -19 c-73 -20 -196 -16 -279 9 -57 17 -63 17 -31 0 81 -44 271 -48 353
-8 l47 24 0 68 c0 142 -78 379 -152 461 -12 15 -37 34 -53 42 -28 14 -33 13
-68 -5z"/>
<path d="M2880 1726 c0 -38 122 -77 251 -79 106 -2 156 8 170 35 15 29 0 40
-41 28 -53 -15 -135 -12 -248 10 -122 24 -132 24 -132 6z"/>
<path d="M4290 1038 c102 -105 158 -312 104 -385 -42 -55 -144 -63 -199 -15
-59 51 -71 168 -31 287 14 39 23 72 21 73 -8 8 -39 -67 -51 -123 -24 -111 -13
-182 36 -239 85 -96 247 -53 266 71 16 108 -75 316 -158 359 -26 13 -25 11 12
-28z"/>
<path d="M380 2930 c-30 -4 -68 -13 -83 -19 -31 -12 -100 -61 -106 -74 -2 -5
-17 -24 -33 -43 -27 -30 -30 -41 -30 -102 -1 -97 25 -140 103 -167 57 -21 191
-20 231 1 47 24 114 91 134 132 25 52 15 160 -18 204 -25 33 -103 79 -129 77
-8 -1 -39 -5 -69 -9z"/>
</g>
</svg>
